<svg xmlns="http://www.w3.org/2000/svg" xmlns:xlink="http://www.w3.org/1999/xlink" width="500" zoomAndPan="magnify" viewBox="0 0 375 374.999991" height="500" preserveAspectRatio="xMidYMid meet" version="1.0"><defs><clipPath id="2154256683"><path d="M 57.742188 0 L 309.742188 0 L 309.742188 375 L 57.742188 375 Z M 57.742188 0 " clip-rule="nonzero"/></clipPath></defs><g clip-path="url(#2154256683)"><path fill="#262103" d="M 68.21875 375 C 67.765625 375 67.351562 374.863281 66.984375 374.59375 C 66.617188 374.324219 66.367188 373.972656 66.230469 373.539062 C 66.175781 373.359375 64.859375 369.125 63.261719 361.804688 C 63.203125 361.535156 63.199219 361.265625 63.246094 360.992188 C 63.296875 360.71875 63.394531 360.46875 63.546875 360.234375 C 63.695312 360.003906 63.882812 359.808594 64.109375 359.648438 C 64.335938 359.492188 64.585938 359.382812 64.855469 359.324219 C 65.128906 359.265625 65.398438 359.261719 65.671875 359.308594 C 65.945312 359.359375 66.195312 359.457031 66.429688 359.609375 C 66.660156 359.757812 66.855469 359.945312 67.015625 360.171875 C 67.171875 360.398438 67.28125 360.648438 67.339844 360.917969 C 68.886719 368.039062 70.199219 372.253906 70.210938 372.296875 C 70.261719 372.453125 70.289062 372.609375 70.300781 372.773438 C 70.3125 372.9375 70.304688 373.097656 70.277344 373.261719 C 70.25 373.421875 70.207031 373.578125 70.140625 373.726562 C 70.078125 373.878906 70 374.019531 69.902344 374.152344 C 69.804688 374.28125 69.691406 374.402344 69.570312 374.507812 C 69.445312 374.613281 69.308594 374.703125 69.164062 374.777344 C 69.015625 374.851562 68.863281 374.90625 68.703125 374.941406 C 68.546875 374.980469 68.382812 375 68.21875 375 Z M 63.070312 351.746094 C 62.820312 351.746094 62.582031 351.703125 62.351562 351.621094 C 62.117188 351.535156 61.910156 351.410156 61.71875 351.25 C 61.53125 351.09375 61.378906 350.90625 61.257812 350.691406 C 61.132812 350.476562 61.054688 350.246094 61.011719 350.003906 C 60.367188 346.074219 59.808594 342.070312 59.355469 338.109375 C 59.324219 337.832031 59.34375 337.5625 59.421875 337.296875 C 59.496094 337.03125 59.621094 336.792969 59.792969 336.574219 C 59.964844 336.359375 60.171875 336.183594 60.414062 336.050781 C 60.65625 335.914062 60.914062 335.832031 61.1875 335.800781 C 61.464844 335.769531 61.734375 335.792969 62 335.867188 C 62.265625 335.941406 62.507812 336.066406 62.722656 336.238281 C 62.941406 336.410156 63.117188 336.617188 63.25 336.859375 C 63.382812 337.101562 63.46875 337.359375 63.5 337.632812 C 63.945312 341.527344 64.492188 345.460938 65.128906 349.324219 C 65.179688 349.625 65.164062 349.925781 65.082031 350.21875 C 65 350.515625 64.859375 350.777344 64.660156 351.011719 C 64.460938 351.246094 64.222656 351.425781 63.945312 351.554688 C 63.667969 351.683594 63.375 351.746094 63.070312 351.746094 Z M 60.363281 328.09375 C 60.097656 328.09375 59.839844 328.046875 59.59375 327.949219 C 59.347656 327.851562 59.128906 327.710938 58.9375 327.53125 C 58.742188 327.351562 58.589844 327.140625 58.476562 326.902344 C 58.363281 326.660156 58.300781 326.410156 58.28125 326.144531 C 58.023438 322.136719 57.867188 318.097656 57.816406 314.140625 C 57.8125 313.867188 57.863281 313.597656 57.964844 313.34375 C 58.070312 313.085938 58.214844 312.859375 58.410156 312.660156 C 58.601562 312.464844 58.828125 312.3125 59.082031 312.203125 C 59.335938 312.09375 59.601562 312.039062 59.875 312.035156 L 59.902344 312.035156 C 60.175781 312.035156 60.441406 312.085938 60.695312 312.191406 C 60.949219 312.292969 61.171875 312.441406 61.367188 312.632812 C 61.5625 312.828125 61.714844 313.046875 61.820312 313.300781 C 61.929688 313.550781 61.984375 313.816406 61.988281 314.089844 C 62.035156 317.972656 62.191406 321.9375 62.445312 325.878906 C 62.464844 326.152344 62.425781 326.421875 62.339844 326.683594 C 62.25 326.945312 62.113281 327.179688 61.929688 327.386719 C 61.75 327.59375 61.53125 327.757812 61.285156 327.882812 C 61.035156 328.003906 60.773438 328.074219 60.5 328.089844 C 60.453125 328.09375 60.40625 328.09375 60.363281 328.09375 Z M 60.082031 304.296875 C 60.050781 304.296875 60.023438 304.296875 59.992188 304.296875 C 59.714844 304.285156 59.449219 304.222656 59.199219 304.105469 C 58.949219 303.988281 58.730469 303.828125 58.542969 303.621094 C 58.355469 303.417969 58.214844 303.1875 58.117188 302.925781 C 58.023438 302.667969 57.984375 302.398438 57.996094 302.121094 C 58.167969 298.085938 58.460938 294.046875 58.863281 290.125 C 58.894531 289.851562 58.976562 289.597656 59.109375 289.355469 C 59.242188 289.117188 59.414062 288.910156 59.628906 288.738281 C 59.84375 288.570312 60.082031 288.445312 60.34375 288.367188 C 60.605469 288.289062 60.875 288.265625 61.148438 288.292969 C 61.421875 288.320312 61.675781 288.398438 61.917969 288.527344 C 62.160156 288.65625 62.367188 288.828125 62.542969 289.039062 C 62.71875 289.25 62.84375 289.484375 62.925781 289.746094 C 63.007812 290.007812 63.035156 290.277344 63.011719 290.550781 C 62.617188 294.390625 62.332031 298.34375 62.164062 302.300781 C 62.152344 302.570312 62.089844 302.824219 61.980469 303.070312 C 61.871094 303.316406 61.71875 303.53125 61.523438 303.714844 C 61.328125 303.902344 61.109375 304.046875 60.859375 304.144531 C 60.609375 304.246094 60.351562 304.296875 60.082031 304.296875 Z M 62.527344 280.625 C 62.414062 280.625 62.296875 280.617188 62.179688 280.597656 C 61.910156 280.550781 61.65625 280.453125 61.421875 280.308594 C 61.1875 280.160156 60.988281 279.976562 60.828125 279.75 C 60.667969 279.527344 60.554688 279.277344 60.496094 279.007812 C 60.433594 278.738281 60.425781 278.46875 60.46875 278.195312 C 61.140625 274.199219 61.953125 270.226562 62.875 266.390625 C 62.9375 266.121094 63.046875 265.871094 63.210938 265.644531 C 63.371094 265.417969 63.570312 265.234375 63.808594 265.085938 C 64.042969 264.941406 64.300781 264.84375 64.574219 264.800781 C 64.851562 264.757812 65.121094 264.765625 65.394531 264.832031 C 65.664062 264.898438 65.910156 265.011719 66.136719 265.175781 C 66.359375 265.339844 66.546875 265.539062 66.691406 265.777344 C 66.835938 266.015625 66.925781 266.273438 66.96875 266.546875 C 67.007812 266.824219 66.996094 267.09375 66.929688 267.363281 C 66.027344 271.105469 65.238281 274.984375 64.582031 278.886719 C 64.542969 279.128906 64.460938 279.355469 64.339844 279.570312 C 64.214844 279.785156 64.0625 279.972656 63.875 280.128906 C 63.6875 280.289062 63.476562 280.410156 63.246094 280.496094 C 63.015625 280.578125 62.773438 280.621094 62.527344 280.621094 Z M 68.113281 257.5 C 67.949219 257.5 67.785156 257.480469 67.625 257.445312 C 67.464844 257.40625 67.3125 257.347656 67.167969 257.273438 C 67.019531 257.199219 66.886719 257.109375 66.761719 257.003906 C 66.636719 256.898438 66.523438 256.777344 66.425781 256.644531 C 66.332031 256.511719 66.25 256.371094 66.1875 256.21875 C 66.125 256.066406 66.078125 255.910156 66.054688 255.75 C 66.027344 255.585938 66.019531 255.421875 66.03125 255.261719 C 66.046875 255.097656 66.078125 254.9375 66.125 254.78125 C 67.367188 250.921875 68.761719 247.109375 70.273438 243.449219 C 70.375 243.1875 70.523438 242.957031 70.71875 242.753906 C 70.914062 242.554688 71.140625 242.398438 71.398438 242.289062 C 71.65625 242.175781 71.921875 242.121094 72.203125 242.121094 C 72.484375 242.117188 72.753906 242.171875 73.011719 242.277344 C 73.273438 242.382812 73.5 242.535156 73.699219 242.734375 C 73.894531 242.933594 74.046875 243.164062 74.152344 243.421875 C 74.257812 243.683594 74.308594 243.953125 74.304688 244.230469 C 74.300781 244.511719 74.242188 244.78125 74.128906 245.035156 C 72.660156 248.597656 71.304688 252.304688 70.097656 256.054688 C 69.957031 256.484375 69.707031 256.832031 69.339844 257.097656 C 68.972656 257.363281 68.566406 257.5 68.113281 257.5 Z M 254.632812 251.625 C 254.578125 251.625 254.519531 251.625 254.464844 251.621094 L 254.054688 251.585938 C 250.019531 251.238281 246.121094 250.3125 242.363281 248.804688 C 242.105469 248.699219 241.878906 248.550781 241.679688 248.359375 C 241.484375 248.164062 241.332031 247.941406 241.222656 247.6875 C 241.113281 247.433594 241.058594 247.167969 241.054688 246.890625 C 241.050781 246.613281 241.101562 246.347656 241.203125 246.089844 C 241.308594 245.835938 241.457031 245.609375 241.648438 245.410156 C 241.84375 245.210938 242.066406 245.058594 242.324219 244.949219 C 242.578125 244.84375 242.84375 244.785156 243.121094 244.785156 C 243.394531 244.78125 243.664062 244.832031 243.917969 244.933594 C 247.296875 246.289062 250.796875 247.121094 254.421875 247.433594 L 254.796875 247.464844 C 255.066406 247.484375 255.324219 247.554688 255.566406 247.675781 C 255.808594 247.796875 256.019531 247.957031 256.199219 248.15625 C 256.378906 248.359375 256.511719 248.585938 256.605469 248.839844 C 256.695312 249.09375 256.734375 249.355469 256.726562 249.625 C 256.714844 249.894531 256.652344 250.152344 256.542969 250.398438 C 256.429688 250.644531 256.277344 250.859375 256.082031 251.046875 C 255.886719 251.234375 255.664062 251.375 255.414062 251.476562 C 255.164062 251.578125 254.902344 251.625 254.632812 251.625 Z M 266.527344 251.597656 C 266.257812 251.597656 266 251.546875 265.753906 251.449219 C 265.503906 251.347656 265.28125 251.207031 265.089844 251.019531 C 264.894531 250.835938 264.742188 250.621094 264.632812 250.378906 C 264.523438 250.132812 264.460938 249.878906 264.449219 249.609375 C 264.4375 249.34375 264.472656 249.082031 264.5625 248.832031 C 264.652344 248.578125 264.78125 248.351562 264.960938 248.148438 C 265.136719 247.945312 265.34375 247.785156 265.582031 247.664062 C 265.820312 247.539062 266.070312 247.46875 266.339844 247.441406 C 270.160156 247.101562 273.90625 246.367188 277.570312 245.234375 C 277.835938 245.148438 278.105469 245.117188 278.386719 245.136719 C 278.664062 245.160156 278.925781 245.234375 279.171875 245.363281 C 279.421875 245.492188 279.632812 245.660156 279.8125 245.875 C 279.992188 246.085938 280.125 246.324219 280.207031 246.589844 C 280.289062 246.855469 280.320312 247.128906 280.292969 247.40625 C 280.269531 247.683594 280.191406 247.945312 280.058594 248.191406 C 279.929688 248.4375 279.757812 248.648438 279.542969 248.824219 C 279.328125 249 279.085938 249.128906 278.820312 249.210938 C 274.871094 250.429688 270.839844 251.222656 266.722656 251.589844 C 266.65625 251.59375 266.59375 251.597656 266.527344 251.597656 Z M 289.011719 244.398438 C 288.546875 244.398438 288.128906 244.257812 287.753906 243.976562 C 287.382812 243.699219 287.132812 243.335938 287.007812 242.886719 C 286.878906 242.4375 286.898438 242 287.066406 241.5625 C 287.234375 241.128906 287.515625 240.789062 287.910156 240.546875 C 291.144531 238.554688 294.027344 236.148438 296.5625 233.324219 C 296.746094 233.121094 296.964844 232.957031 297.210938 232.839844 C 297.460938 232.722656 297.722656 232.65625 297.996094 232.640625 C 298.269531 232.625 298.539062 232.664062 298.796875 232.753906 C 299.058594 232.847656 299.289062 232.984375 299.496094 233.167969 C 299.703125 233.347656 299.863281 233.5625 299.984375 233.8125 C 300.105469 234.058594 300.171875 234.320312 300.191406 234.59375 C 300.207031 234.867188 300.171875 235.136719 300.082031 235.394531 C 299.992188 235.65625 299.855469 235.890625 299.675781 236.097656 C 296.871094 239.21875 293.683594 241.882812 290.109375 244.085938 C 289.773438 244.292969 289.40625 244.398438 289.011719 244.394531 Z M 232.917969 243.003906 C 232.441406 243.003906 232.015625 242.855469 231.636719 242.5625 C 228.398438 240.003906 225.464844 237.136719 222.832031 233.957031 C 222.65625 233.746094 222.527344 233.507812 222.445312 233.246094 C 222.363281 232.980469 222.335938 232.710938 222.359375 232.4375 C 222.386719 232.164062 222.460938 231.902344 222.589844 231.660156 C 222.71875 231.414062 222.886719 231.203125 223.101562 231.027344 C 223.3125 230.851562 223.550781 230.71875 223.8125 230.636719 C 224.078125 230.554688 224.347656 230.527344 224.621094 230.550781 C 224.894531 230.574219 225.15625 230.652344 225.402344 230.777344 C 225.644531 230.90625 225.855469 231.074219 226.035156 231.285156 C 228.476562 234.238281 231.199219 236.902344 234.203125 239.277344 C 234.554688 239.550781 234.792969 239.902344 234.917969 240.328125 C 235.046875 240.753906 235.035156 241.179688 234.890625 241.597656 C 234.746094 242.019531 234.492188 242.359375 234.128906 242.617188 C 233.769531 242.875 233.363281 243.003906 232.917969 243.003906 Z M 77.199219 235.523438 C 77.019531 235.523438 76.84375 235.5 76.671875 235.457031 C 76.5 235.410156 76.335938 235.34375 76.179688 235.257812 C 76.023438 235.167969 75.878906 235.0625 75.75 234.941406 C 75.625 234.816406 75.511719 234.675781 75.417969 234.523438 C 75.328125 234.371094 75.253906 234.210938 75.203125 234.039062 C 75.152344 233.867188 75.121094 233.695312 75.117188 233.515625 C 75.109375 233.335938 75.125 233.160156 75.164062 232.984375 C 75.203125 232.8125 75.265625 232.644531 75.347656 232.484375 C 77.199219 228.898438 79.21875 225.375 81.359375 222.003906 C 81.507812 221.777344 81.695312 221.585938 81.921875 221.429688 C 82.148438 221.277344 82.394531 221.171875 82.660156 221.113281 C 82.929688 221.058594 83.195312 221.050781 83.464844 221.101562 C 83.734375 221.148438 83.984375 221.246094 84.214844 221.390625 C 84.445312 221.539062 84.640625 221.722656 84.800781 221.945312 C 84.957031 222.167969 85.066406 222.410156 85.128906 222.675781 C 85.191406 222.941406 85.203125 223.210938 85.160156 223.480469 C 85.117188 223.75 85.023438 224 84.882812 224.234375 C 82.8125 227.5 80.851562 230.917969 79.054688 234.394531 C 78.875 234.742188 78.617188 235.019531 78.285156 235.21875 C 77.953125 235.421875 77.589844 235.523438 77.199219 235.523438 Z M 304.550781 226.835938 C 304.378906 226.835938 304.207031 226.8125 304.039062 226.769531 C 303.871094 226.730469 303.710938 226.664062 303.558594 226.582031 C 303.40625 226.5 303.265625 226.402344 303.140625 226.285156 C 303.011719 226.164062 302.902344 226.035156 302.808594 225.890625 C 302.710938 225.746094 302.636719 225.589844 302.582031 225.425781 C 302.523438 225.261719 302.488281 225.09375 302.476562 224.921875 C 302.460938 224.75 302.46875 224.578125 302.496094 224.40625 C 302.527344 224.234375 302.574219 224.070312 302.644531 223.910156 C 304.171875 220.460938 305.101562 216.859375 305.433594 213.101562 C 305.460938 212.828125 305.535156 212.570312 305.664062 212.324219 C 305.792969 212.082031 305.964844 211.875 306.175781 211.699219 C 306.386719 211.523438 306.625 211.394531 306.886719 211.3125 C 307.148438 211.230469 307.417969 211.199219 307.691406 211.222656 C 307.964844 211.25 308.226562 211.324219 308.46875 211.449219 C 308.714844 211.578125 308.925781 211.746094 309.101562 211.953125 C 309.28125 212.164062 309.410156 212.398438 309.496094 212.660156 C 309.578125 212.921875 309.609375 213.191406 309.585938 213.464844 C 309.214844 217.679688 308.175781 221.722656 306.464844 225.59375 C 306.296875 225.96875 306.039062 226.273438 305.691406 226.496094 C 305.347656 226.722656 304.964844 226.835938 304.550781 226.835938 Z M 217.554688 224.996094 C 217.191406 225 216.847656 224.910156 216.53125 224.730469 C 216.210938 224.550781 215.957031 224.304688 215.769531 223.992188 C 213.675781 220.523438 211.777344 216.949219 210.074219 213.273438 C 209.957031 213.023438 209.890625 212.761719 209.878906 212.484375 C 209.867188 212.210938 209.910156 211.941406 210.003906 211.683594 C 210.097656 211.425781 210.238281 211.191406 210.425781 210.988281 C 210.613281 210.785156 210.832031 210.625 211.082031 210.507812 C 211.332031 210.390625 211.59375 210.328125 211.871094 210.316406 C 212.148438 210.304688 212.414062 210.34375 212.675781 210.4375 C 212.933594 210.53125 213.167969 210.671875 213.371094 210.859375 C 213.574219 211.046875 213.734375 211.261719 213.851562 211.511719 C 215.492188 215.050781 217.320312 218.492188 219.332031 221.832031 C 219.527344 222.15625 219.628906 222.503906 219.636719 222.878906 C 219.640625 223.257812 219.554688 223.609375 219.367188 223.9375 C 219.183594 224.261719 218.929688 224.523438 218.605469 224.710938 C 218.28125 224.902344 217.929688 224.996094 217.550781 224.996094 Z M 89.941406 215.453125 C 89.542969 215.453125 89.175781 215.347656 88.839844 215.140625 C 88.503906 214.929688 88.246094 214.648438 88.070312 214.292969 C 87.894531 213.9375 87.828125 213.5625 87.867188 213.164062 C 87.90625 212.769531 88.046875 212.417969 88.289062 212.101562 C 90.730469 208.925781 93.359375 205.820312 96.089844 202.871094 C 96.277344 202.660156 96.496094 202.496094 96.75 202.375 C 97 202.253906 97.265625 202.1875 97.546875 202.175781 C 97.828125 202.160156 98.097656 202.203125 98.363281 202.296875 C 98.625 202.390625 98.859375 202.535156 99.066406 202.726562 C 99.269531 202.914062 99.433594 203.136719 99.546875 203.390625 C 99.664062 203.648438 99.726562 203.914062 99.734375 204.195312 C 99.742188 204.472656 99.695312 204.742188 99.59375 205.003906 C 99.492188 205.265625 99.347656 205.496094 99.152344 205.699219 C 96.503906 208.554688 93.964844 211.566406 91.59375 214.640625 C 91.175781 215.183594 90.625 215.457031 89.941406 215.453125 Z M 306.59375 203.550781 C 306.359375 203.550781 306.132812 203.515625 305.914062 203.4375 C 305.691406 203.363281 305.488281 203.25 305.304688 203.109375 C 305.121094 202.964844 304.96875 202.792969 304.839844 202.597656 C 304.714844 202.402344 304.625 202.191406 304.566406 201.964844 C 303.65625 198.292969 302.210938 194.84375 300.234375 191.617188 C 300.089844 191.382812 299.996094 191.125 299.953125 190.855469 C 299.914062 190.582031 299.925781 190.3125 299.988281 190.042969 C 300.054688 189.773438 300.167969 189.527344 300.332031 189.304688 C 300.496094 189.082031 300.695312 188.902344 300.933594 188.757812 C 301.167969 188.613281 301.421875 188.519531 301.695312 188.480469 C 301.96875 188.4375 302.238281 188.449219 302.507812 188.511719 C 302.777344 188.578125 303.023438 188.691406 303.246094 188.855469 C 303.46875 189.019531 303.652344 189.21875 303.796875 189.453125 C 305.996094 193.046875 307.605469 196.886719 308.617188 200.972656 C 308.65625 201.125 308.675781 201.28125 308.679688 201.441406 C 308.679688 201.597656 308.664062 201.753906 308.632812 201.90625 C 308.597656 202.0625 308.546875 202.210938 308.480469 202.355469 C 308.414062 202.496094 308.332031 202.628906 308.234375 202.753906 C 308.136719 202.878906 308.027344 202.992188 307.902344 203.089844 C 307.78125 203.1875 307.648438 203.273438 307.503906 203.34375 C 307.363281 203.410156 307.214844 203.464844 307.0625 203.5 C 306.90625 203.535156 306.75 203.550781 306.59375 203.550781 Z M 207.382812 203.472656 C 206.949219 203.472656 206.550781 203.347656 206.191406 203.101562 C 205.835938 202.851562 205.578125 202.523438 205.429688 202.113281 C 204.085938 198.503906 202.796875 194.660156 201.601562 190.683594 C 201.511719 190.414062 201.480469 190.140625 201.5 189.863281 C 201.523438 189.582031 201.601562 189.316406 201.730469 189.066406 C 201.859375 188.820312 202.03125 188.605469 202.25 188.425781 C 202.464844 188.246094 202.710938 188.117188 202.976562 188.035156 C 203.246094 187.953125 203.523438 187.929688 203.800781 187.957031 C 204.082031 187.988281 204.34375 188.070312 204.589844 188.207031 C 204.835938 188.34375 205.046875 188.523438 205.21875 188.742188 C 205.394531 188.964844 205.519531 189.210938 205.59375 189.480469 C 206.765625 193.375 208.027344 197.136719 209.335938 200.664062 C 209.394531 200.820312 209.433594 200.984375 209.453125 201.152344 C 209.472656 201.316406 209.472656 201.484375 209.449219 201.652344 C 209.429688 201.816406 209.390625 201.980469 209.328125 202.136719 C 209.269531 202.292969 209.191406 202.441406 209.09375 202.578125 C 209 202.71875 208.886719 202.839844 208.761719 202.953125 C 208.632812 203.0625 208.496094 203.15625 208.347656 203.234375 C 208.199219 203.3125 208.042969 203.371094 207.878906 203.414062 C 207.714844 203.453125 207.550781 203.472656 207.382812 203.472656 Z M 106.089844 198.011719 C 105.65625 198.011719 105.261719 197.890625 104.90625 197.644531 C 104.550781 197.402344 104.292969 197.078125 104.140625 196.675781 C 103.984375 196.273438 103.957031 195.863281 104.058594 195.441406 C 104.15625 195.023438 104.367188 194.667969 104.6875 194.378906 C 107.640625 191.714844 110.769531 189.125 113.992188 186.679688 C 114.210938 186.515625 114.457031 186.398438 114.722656 186.332031 C 114.988281 186.265625 115.257812 186.25 115.53125 186.289062 C 115.800781 186.324219 116.058594 186.414062 116.292969 186.554688 C 116.53125 186.691406 116.734375 186.871094 116.898438 187.089844 C 117.066406 187.308594 117.183594 187.550781 117.253906 187.816406 C 117.324219 188.082031 117.34375 188.351562 117.304688 188.625 C 117.269531 188.894531 117.183594 189.152344 117.046875 189.386719 C 116.910156 189.625 116.730469 189.828125 116.515625 189.996094 C 113.386719 192.371094 110.351562 194.882812 107.488281 197.46875 C 107.089844 197.832031 106.625 198.011719 106.089844 198.011719 Z M 125.019531 183.625 C 124.558594 183.625 124.140625 183.484375 123.769531 183.207031 C 123.398438 182.929688 123.148438 182.570312 123.015625 182.125 C 122.886719 181.683594 122.902344 181.242188 123.066406 180.808594 C 123.230469 180.375 123.503906 180.035156 123.894531 179.785156 C 127.226562 177.660156 130.726562 175.609375 134.296875 173.6875 C 134.539062 173.554688 134.800781 173.46875 135.078125 173.441406 C 135.355469 173.410156 135.628906 173.433594 135.894531 173.511719 C 136.164062 173.589844 136.40625 173.714844 136.625 173.890625 C 136.839844 174.066406 137.015625 174.277344 137.148438 174.523438 C 137.277344 174.769531 137.359375 175.03125 137.386719 175.308594 C 137.414062 175.585938 137.386719 175.855469 137.304688 176.121094 C 137.222656 176.390625 137.089844 176.628906 136.910156 176.84375 C 136.734375 177.058594 136.519531 177.230469 136.273438 177.359375 C 132.792969 179.226562 129.386719 181.226562 126.144531 183.296875 C 125.800781 183.515625 125.425781 183.625 125.019531 183.625 Z M 294.523438 183.414062 C 293.96875 183.414062 293.488281 183.222656 293.085938 182.839844 C 290.296875 180.210938 287.257812 177.910156 283.972656 175.9375 C 283.730469 175.796875 283.523438 175.613281 283.355469 175.390625 C 283.1875 175.167969 283.070312 174.921875 283 174.648438 C 282.933594 174.378906 282.917969 174.105469 282.960938 173.828125 C 283 173.550781 283.09375 173.292969 283.238281 173.054688 C 283.382812 172.816406 283.570312 172.617188 283.796875 172.453125 C 284.023438 172.289062 284.273438 172.171875 284.542969 172.109375 C 284.816406 172.042969 285.089844 172.035156 285.367188 172.082031 C 285.640625 172.128906 285.898438 172.226562 286.132812 172.375 C 289.679688 174.503906 292.957031 176.984375 295.964844 179.820312 C 296.273438 180.113281 296.472656 180.46875 296.566406 180.886719 C 296.65625 181.300781 296.621094 181.707031 296.464844 182.101562 C 296.304688 182.5 296.050781 182.816406 295.695312 183.054688 C 295.34375 183.292969 294.953125 183.414062 294.527344 183.414062 Z M 200.453125 180.65625 C 200.21875 180.65625 199.992188 180.617188 199.773438 180.542969 C 199.550781 180.464844 199.351562 180.355469 199.167969 180.214844 C 198.984375 180.070312 198.828125 179.898438 198.703125 179.703125 C 198.574219 179.507812 198.484375 179.296875 198.429688 179.070312 C 197.5 175.304688 196.613281 171.359375 195.800781 167.34375 C 195.742188 167.070312 195.738281 166.800781 195.792969 166.527344 C 195.84375 166.253906 195.945312 166 196.097656 165.765625 C 196.25 165.535156 196.441406 165.339844 196.671875 165.183594 C 196.902344 165.027344 197.15625 164.921875 197.429688 164.867188 C 197.699219 164.8125 197.972656 164.8125 198.246094 164.867188 C 198.519531 164.921875 198.773438 165.027344 199.003906 165.179688 C 199.234375 165.335938 199.425781 165.53125 199.582031 165.761719 C 199.734375 165.992188 199.835938 166.246094 199.890625 166.519531 C 200.691406 170.476562 201.5625 174.363281 202.476562 178.074219 C 202.542969 178.34375 202.554688 178.613281 202.515625 178.886719 C 202.472656 179.160156 202.378906 179.414062 202.238281 179.648438 C 202.09375 179.886719 201.910156 180.085938 201.6875 180.25 C 201.464844 180.414062 201.222656 180.527344 200.953125 180.59375 C 200.789062 180.636719 200.621094 180.65625 200.453125 180.65625 Z M 145.960938 172.339844 C 145.722656 172.339844 145.492188 172.300781 145.265625 172.222656 C 145.042969 172.144531 144.835938 172.027344 144.652344 171.878906 C 144.464844 171.730469 144.308594 171.554688 144.183594 171.351562 C 144.058594 171.148438 143.972656 170.929688 143.921875 170.699219 C 143.871094 170.464844 143.859375 170.230469 143.890625 169.992188 C 143.921875 169.757812 143.992188 169.53125 144.097656 169.320312 C 144.203125 169.109375 144.34375 168.917969 144.515625 168.753906 C 144.6875 168.589844 144.882812 168.457031 145.101562 168.359375 C 147.433594 167.304688 149.84375 166.277344 152.257812 165.304688 C 152.285156 165.292969 152.316406 165.28125 152.34375 165.269531 C 152.40625 165.25 153.847656 164.746094 156.496094 163.980469 C 156.761719 163.910156 157.027344 163.890625 157.300781 163.921875 C 157.574219 163.957031 157.828125 164.039062 158.070312 164.171875 C 158.308594 164.304688 158.511719 164.480469 158.683594 164.695312 C 158.855469 164.910156 158.976562 165.148438 159.054688 165.414062 C 159.128906 165.675781 159.152344 165.945312 159.125 166.214844 C 159.09375 166.488281 159.011719 166.746094 158.882812 166.984375 C 158.75 167.226562 158.578125 167.433594 158.367188 167.605469 C 158.152344 167.78125 157.914062 167.90625 157.652344 167.984375 C 155.371094 168.640625 154.015625 169.101562 153.769531 169.1875 C 151.421875 170.132812 149.085938 171.128906 146.820312 172.152344 C 146.546875 172.277344 146.257812 172.339844 145.957031 172.339844 Z M 274.375 170.996094 C 274.109375 170.996094 273.855469 170.945312 273.609375 170.847656 C 272.148438 170.273438 270.617188 169.722656 269.058594 169.214844 C 266.894531 168.511719 264.683594 167.839844 262.492188 167.222656 C 262.222656 167.148438 261.984375 167.023438 261.765625 166.855469 C 261.550781 166.683594 261.375 166.476562 261.238281 166.234375 C 261.101562 165.996094 261.019531 165.738281 260.988281 165.460938 C 260.953125 165.1875 260.976562 164.917969 261.050781 164.652344 C 261.125 164.386719 261.25 164.144531 261.421875 163.929688 C 261.589844 163.710938 261.796875 163.535156 262.039062 163.402344 C 262.28125 163.265625 262.539062 163.183594 262.8125 163.148438 C 263.085938 163.117188 263.355469 163.136719 263.621094 163.210938 C 265.871094 163.84375 268.136719 164.53125 270.355469 165.257812 C 271.992188 165.792969 273.601562 166.367188 275.140625 166.972656 C 275.367188 167.0625 275.570312 167.1875 275.753906 167.347656 C 275.9375 167.507812 276.085938 167.691406 276.203125 167.90625 C 276.320312 168.117188 276.398438 168.34375 276.4375 168.582031 C 276.476562 168.824219 276.472656 169.0625 276.425781 169.300781 C 276.382812 169.539062 276.296875 169.761719 276.171875 169.972656 C 276.050781 170.179688 275.894531 170.363281 275.707031 170.515625 C 275.519531 170.671875 275.3125 170.789062 275.082031 170.871094 C 274.855469 170.953125 274.617188 170.996094 274.375 170.996094 Z M 168.636719 165.191406 C 168.378906 165.191406 168.128906 165.148438 167.890625 165.054688 C 167.648438 164.964844 167.433594 164.832031 167.242188 164.660156 C 167.050781 164.488281 166.894531 164.285156 166.777344 164.054688 C 166.660156 163.828125 166.589844 163.585938 166.5625 163.328125 C 166.535156 163.070312 166.554688 162.820312 166.621094 162.570312 C 166.6875 162.320312 166.796875 162.09375 166.949219 161.886719 C 167.101562 161.675781 167.285156 161.503906 167.5 161.363281 C 167.714844 161.222656 167.949219 161.125 168.203125 161.070312 C 172.058594 160.25 176.042969 159.519531 180.046875 158.902344 C 180.320312 158.855469 180.59375 158.867188 180.863281 158.929688 C 181.136719 158.992188 181.382812 159.109375 181.609375 159.269531 C 181.832031 159.433594 182.019531 159.632812 182.164062 159.871094 C 182.308594 160.109375 182.402344 160.363281 182.445312 160.640625 C 182.488281 160.914062 182.476562 161.1875 182.410156 161.457031 C 182.34375 161.726562 182.226562 161.972656 182.058594 162.195312 C 181.894531 162.421875 181.691406 162.601562 181.453125 162.746094 C 181.214844 162.886719 180.957031 162.980469 180.679688 163.019531 C 176.757812 163.625 172.851562 164.339844 169.074219 165.144531 C 168.929688 165.175781 168.785156 165.191406 168.636719 165.191406 Z M 251.480469 164.472656 C 251.335938 164.472656 251.191406 164.460938 251.050781 164.429688 C 247.25 163.636719 243.347656 162.957031 239.449219 162.40625 C 239.175781 162.367188 238.917969 162.277344 238.679688 162.136719 C 238.441406 161.996094 238.242188 161.816406 238.074219 161.597656 C 237.90625 161.375 237.789062 161.132812 237.722656 160.863281 C 237.652344 160.597656 237.636719 160.328125 237.675781 160.054688 C 237.714844 159.78125 237.804688 159.523438 237.945312 159.285156 C 238.082031 159.046875 238.265625 158.847656 238.484375 158.679688 C 238.707031 158.511719 238.949219 158.394531 239.21875 158.328125 C 239.484375 158.257812 239.757812 158.242188 240.03125 158.28125 C 244.019531 158.84375 248.015625 159.539062 251.902344 160.347656 C 252.15625 160.402344 252.390625 160.496094 252.609375 160.636719 C 252.824219 160.777344 253.007812 160.949219 253.160156 161.160156 C 253.3125 161.367188 253.425781 161.59375 253.492188 161.84375 C 253.558594 162.09375 253.578125 162.34375 253.554688 162.601562 C 253.527344 162.859375 253.457031 163.101562 253.339844 163.332031 C 253.222656 163.5625 253.066406 163.761719 252.875 163.933594 C 252.683594 164.109375 252.46875 164.242188 252.226562 164.332031 C 251.988281 164.425781 251.738281 164.472656 251.480469 164.472656 Z M 192.1875 161.558594 C 191.917969 161.558594 191.660156 161.507812 191.410156 161.410156 C 191.164062 161.308594 190.941406 161.167969 190.746094 160.984375 C 190.554688 160.800781 190.402344 160.585938 190.289062 160.339844 C 190.179688 160.097656 190.117188 159.84375 190.101562 159.574219 C 190.089844 159.308594 190.128906 159.046875 190.214844 158.796875 C 190.300781 158.542969 190.433594 158.3125 190.609375 158.113281 C 190.785156 157.910156 190.992188 157.746094 191.230469 157.625 C 191.46875 157.5 191.71875 157.425781 191.988281 157.402344 C 192.964844 157.304688 193.949219 157.21875 194.933594 157.136719 C 194.59375 157 194.304688 156.792969 194.074219 156.507812 C 193.84375 156.21875 193.695312 155.894531 193.636719 155.535156 C 193 151.660156 192.410156 147.664062 191.886719 143.660156 C 191.847656 143.386719 191.867188 143.117188 191.9375 142.847656 C 192.007812 142.582031 192.128906 142.339844 192.296875 142.117188 C 192.464844 141.898438 192.671875 141.71875 192.910156 141.582031 C 193.148438 141.445312 193.40625 141.355469 193.683594 141.320312 C 193.957031 141.285156 194.226562 141.300781 194.496094 141.375 C 194.761719 141.445312 195.003906 141.566406 195.226562 141.734375 C 195.445312 141.90625 195.621094 142.109375 195.761719 142.347656 C 195.898438 142.589844 195.984375 142.847656 196.019531 143.121094 C 196.539062 147.082031 197.121094 151.027344 197.753906 154.855469 C 197.824219 155.28125 197.765625 155.6875 197.585938 156.078125 C 197.402344 156.46875 197.125 156.773438 196.753906 156.992188 C 199.175781 156.808594 201.597656 156.667969 203.992188 156.570312 C 204.269531 156.558594 204.539062 156.597656 204.800781 156.691406 C 205.0625 156.785156 205.292969 156.925781 205.5 157.113281 C 205.703125 157.300781 205.863281 157.523438 205.980469 157.773438 C 206.097656 158.023438 206.164062 158.289062 206.175781 158.566406 C 206.183594 158.84375 206.144531 159.113281 206.046875 159.371094 C 205.949219 159.632812 205.808594 159.863281 205.621094 160.066406 C 205.429688 160.269531 205.210938 160.429688 204.957031 160.546875 C 204.707031 160.660156 204.441406 160.722656 204.164062 160.734375 C 200.269531 160.890625 196.308594 161.167969 192.390625 161.546875 C 192.324219 161.554688 192.257812 161.558594 192.1875 161.558594 Z M 227.898438 161.140625 C 227.84375 161.140625 227.789062 161.140625 227.734375 161.136719 C 223.867188 160.835938 219.902344 160.652344 215.957031 160.585938 C 215.683594 160.582031 215.417969 160.523438 215.164062 160.414062 C 214.910156 160.300781 214.6875 160.148438 214.496094 159.949219 C 214.304688 159.75 214.160156 159.523438 214.058594 159.265625 C 213.957031 159.007812 213.90625 158.742188 213.910156 158.46875 C 213.917969 158.191406 213.972656 157.925781 214.082031 157.671875 C 214.195312 157.421875 214.347656 157.199219 214.546875 157.007812 C 214.746094 156.8125 214.972656 156.667969 215.230469 156.566406 C 215.484375 156.464844 215.753906 156.414062 216.027344 156.417969 C 220.058594 156.488281 224.105469 156.675781 228.054688 156.980469 C 228.324219 157 228.582031 157.070312 228.824219 157.191406 C 229.0625 157.308594 229.273438 157.46875 229.453125 157.671875 C 229.632812 157.871094 229.769531 158.097656 229.859375 158.351562 C 229.953125 158.605469 229.992188 158.867188 229.984375 159.136719 C 229.972656 159.40625 229.910156 159.664062 229.800781 159.910156 C 229.691406 160.15625 229.539062 160.371094 229.34375 160.558594 C 229.148438 160.746094 228.929688 160.890625 228.675781 160.992188 C 228.425781 161.089844 228.167969 161.140625 227.898438 161.140625 Z M 192.582031 133.617188 C 192.324219 133.617188 192.074219 133.570312 191.832031 133.476562 C 191.59375 133.382812 191.375 133.25 191.183594 133.078125 C 190.992188 132.902344 190.839844 132.703125 190.722656 132.472656 C 190.605469 132.242188 190.535156 131.996094 190.507812 131.738281 C 190.101562 127.667969 189.765625 123.636719 189.503906 119.765625 C 189.488281 119.488281 189.527344 119.222656 189.613281 118.964844 C 189.703125 118.703125 189.839844 118.472656 190.023438 118.265625 C 190.203125 118.058594 190.417969 117.894531 190.664062 117.773438 C 190.910156 117.652344 191.171875 117.582031 191.445312 117.566406 C 191.722656 117.546875 191.988281 117.582031 192.25 117.667969 C 192.507812 117.757812 192.742188 117.890625 192.953125 118.070312 C 193.160156 118.25 193.324219 118.460938 193.449219 118.707031 C 193.574219 118.953125 193.644531 119.210938 193.664062 119.484375 C 193.921875 123.3125 194.257812 127.296875 194.660156 131.328125 C 194.6875 131.621094 194.65625 131.90625 194.5625 132.1875 C 194.472656 132.464844 194.324219 132.714844 194.128906 132.933594 C 193.929688 133.152344 193.695312 133.320312 193.429688 133.4375 C 193.160156 133.558594 192.875 133.617188 192.582031 133.617188 Z M 190.957031 109.757812 C 190.6875 109.757812 190.425781 109.707031 190.171875 109.605469 C 189.921875 109.503906 189.699219 109.359375 189.503906 109.167969 C 189.308594 108.980469 189.15625 108.761719 189.046875 108.511719 C 188.9375 108.265625 188.878906 108.003906 188.871094 107.734375 C 188.824219 106.195312 188.800781 104.542969 188.800781 102.828125 C 188.800781 100.554688 188.84375 98.15625 188.925781 95.699219 C 188.9375 95.425781 188.996094 95.160156 189.113281 94.910156 C 189.226562 94.660156 189.386719 94.4375 189.585938 94.25 C 189.789062 94.0625 190.019531 93.917969 190.277344 93.824219 C 190.535156 93.726562 190.804688 93.683594 191.082031 93.691406 C 191.355469 93.699219 191.621094 93.761719 191.871094 93.875 C 192.125 93.988281 192.34375 94.148438 192.535156 94.347656 C 192.722656 94.550781 192.867188 94.78125 192.964844 95.039062 C 193.0625 95.296875 193.105469 95.5625 193.097656 95.839844 C 193.015625 98.25 192.976562 100.601562 192.976562 102.828125 C 192.976562 104.5 193 106.109375 193.042969 107.609375 C 193.054688 107.886719 193.007812 108.152344 192.910156 108.410156 C 192.8125 108.667969 192.667969 108.898438 192.476562 109.097656 C 192.289062 109.300781 192.066406 109.457031 191.816406 109.570312 C 191.5625 109.683594 191.300781 109.746094 191.023438 109.753906 Z M 191.6875 85.96875 C 191.632812 85.96875 191.578125 85.96875 191.523438 85.964844 C 191.246094 85.941406 190.988281 85.867188 190.738281 85.742188 C 190.492188 85.617188 190.28125 85.449219 190.101562 85.238281 C 189.921875 85.03125 189.789062 84.792969 189.703125 84.53125 C 189.617188 84.269531 189.585938 84 189.609375 83.722656 C 189.910156 79.835938 190.304688 75.824219 190.777344 71.796875 C 190.808594 71.523438 190.894531 71.265625 191.027344 71.027344 C 191.164062 70.785156 191.339844 70.582031 191.554688 70.410156 C 191.773438 70.238281 192.015625 70.117188 192.28125 70.039062 C 192.546875 69.964844 192.816406 69.945312 193.089844 69.976562 C 193.363281 70.007812 193.621094 70.089844 193.863281 70.226562 C 194.105469 70.359375 194.3125 70.535156 194.480469 70.75 C 194.652344 70.96875 194.777344 71.207031 194.851562 71.472656 C 194.929688 71.738281 194.953125 72.007812 194.917969 72.28125 C 194.453125 76.253906 194.066406 80.214844 193.765625 84.050781 C 193.746094 84.3125 193.675781 84.558594 193.5625 84.796875 C 193.449219 85.03125 193.296875 85.238281 193.105469 85.414062 C 192.910156 85.59375 192.695312 85.730469 192.449219 85.828125 C 192.207031 85.921875 191.953125 85.972656 191.691406 85.972656 Z M 194.4375 62.328125 C 194.132812 62.328125 193.84375 62.265625 193.566406 62.136719 C 193.289062 62.011719 193.050781 61.832031 192.855469 61.605469 C 192.65625 61.375 192.515625 61.113281 192.429688 60.820312 C 192.347656 60.527344 192.328125 60.234375 192.371094 59.933594 C 192.960938 56.046875 193.628906 52.078125 194.355469 48.128906 C 194.40625 47.855469 194.503906 47.605469 194.65625 47.375 C 194.804688 47.140625 194.996094 46.945312 195.222656 46.789062 C 195.449219 46.632812 195.699219 46.527344 195.96875 46.46875 C 196.238281 46.410156 196.511719 46.40625 196.78125 46.457031 C 197.054688 46.507812 197.308594 46.605469 197.539062 46.757812 C 197.773438 46.90625 197.964844 47.09375 198.121094 47.324219 C 198.28125 47.550781 198.386719 47.800781 198.445312 48.070312 C 198.503906 48.339844 198.507812 48.609375 198.457031 48.882812 C 197.738281 52.785156 197.078125 56.714844 196.496094 60.554688 C 196.460938 60.800781 196.382812 61.035156 196.261719 61.253906 C 196.140625 61.46875 195.984375 61.660156 195.796875 61.824219 C 195.609375 61.984375 195.398438 62.109375 195.164062 62.199219 C 194.929688 62.285156 194.6875 62.328125 194.4375 62.328125 Z M 198.738281 38.917969 C 198.589844 38.917969 198.441406 38.902344 198.296875 38.871094 C 198.027344 38.8125 197.777344 38.703125 197.550781 38.546875 C 197.324219 38.390625 197.136719 38.195312 196.984375 37.964844 C 196.835938 37.730469 196.734375 37.480469 196.683594 37.207031 C 196.632812 36.9375 196.636719 36.667969 196.695312 36.394531 C 197.523438 32.539062 198.425781 28.617188 199.371094 24.738281 C 199.4375 24.472656 199.554688 24.230469 199.71875 24.011719 C 199.882812 23.792969 200.082031 23.613281 200.320312 23.472656 C 200.554688 23.332031 200.808594 23.242188 201.078125 23.203125 C 201.347656 23.160156 201.617188 23.171875 201.882812 23.238281 C 202.148438 23.300781 202.394531 23.414062 202.613281 23.574219 C 202.835938 23.738281 203.019531 23.933594 203.164062 24.164062 C 203.308594 24.398438 203.402344 24.648438 203.445312 24.917969 C 203.492188 25.191406 203.484375 25.457031 203.421875 25.722656 C 202.484375 29.566406 201.59375 33.453125 200.773438 37.269531 C 200.722656 37.503906 200.636719 37.722656 200.511719 37.921875 C 200.386719 38.125 200.230469 38.300781 200.046875 38.453125 C 199.863281 38.601562 199.65625 38.71875 199.433594 38.796875 C 199.207031 38.875 198.976562 38.917969 198.738281 38.917969 Z M 204.375 15.789062 C 204.214844 15.789062 204.054688 15.769531 203.898438 15.734375 C 203.746094 15.699219 203.59375 15.644531 203.449219 15.574219 C 203.304688 15.503906 203.171875 15.417969 203.050781 15.316406 C 202.925781 15.210938 202.8125 15.097656 202.71875 14.972656 C 202.621094 14.84375 202.539062 14.707031 202.472656 14.5625 C 202.40625 14.414062 202.359375 14.261719 202.328125 14.105469 C 202.296875 13.949219 202.285156 13.789062 202.289062 13.628906 C 202.296875 13.46875 202.320312 13.3125 202.363281 13.15625 C 203.398438 9.347656 204.507812 5.480469 205.652344 1.664062 C 205.722656 1.390625 205.847656 1.140625 206.019531 0.917969 C 206.191406 0.691406 206.402344 0.511719 206.648438 0.371094 C 206.894531 0.234375 207.160156 0.148438 207.441406 0.117188 C 207.722656 0.0859375 208 0.109375 208.269531 0.191406 C 208.542969 0.273438 208.785156 0.402344 209.003906 0.585938 C 209.222656 0.765625 209.398438 0.984375 209.527344 1.234375 C 209.65625 1.484375 209.730469 1.753906 209.75 2.035156 C 209.773438 2.316406 209.738281 2.59375 209.644531 2.859375 C 208.507812 6.648438 207.410156 10.476562 206.382812 14.253906 C 206.261719 14.707031 206.011719 15.074219 205.640625 15.359375 C 205.265625 15.644531 204.84375 15.789062 204.375 15.789062 Z M 204.375 15.789062 " fill-opacity="1" fill-rule="nonzero"/></g></svg>